<?xml version="1.0" encoding="utf-8"?>
<!-- Generator: Adobe Illustrator 24.0.2, SVG Export Plug-In . SVG Version: 6.00 Build 0)  -->
<!DOCTYPE svg PUBLIC "-//W3C//DTD SVG 1.1//EN" "http://www.w3.org/Graphics/SVG/1.1/DTD/svg11.dtd" [
	<!ENTITY ns_extend "http://ns.adobe.com/Extensibility/1.0/">
	<!ENTITY ns_ai "http://ns.adobe.com/AdobeIllustrator/10.0/">
	<!ENTITY ns_graphs "http://ns.adobe.com/Graphs/1.0/">
	<!ENTITY ns_vars "http://ns.adobe.com/Variables/1.0/">
	<!ENTITY ns_imrep "http://ns.adobe.com/ImageReplacement/1.0/">
	<!ENTITY ns_sfw "http://ns.adobe.com/SaveForWeb/1.0/">
	<!ENTITY ns_custom "http://ns.adobe.com/GenericCustomNamespace/1.0/">
	<!ENTITY ns_adobe_xpath "http://ns.adobe.com/XPath/1.0/">
]>
<svg version="1.1" id="logo_xA0_Image_1_" xmlns:x="&ns_extend;" xmlns:i="&ns_ai;" xmlns:graph="&ns_graphs;"
	 xmlns="http://www.w3.org/2000/svg" xmlns:xlink="http://www.w3.org/1999/xlink" x="0px" y="0px" viewBox="0 0 107.48 113.68"
	 style="enable-background:new 0 0 107.48 113.68;" xml:space="preserve">
<metadata>
	<sfw  xmlns="&ns_sfw;">
		<slices></slices>
		<sliceSourceBounds  bottomLeftOrigin="true" height="110.64" width="100.87" x="199.82" y="194.4"></sliceSourceBounds>
	</sfw>
</metadata>
<g>
	<g>
		<path style="fill:#1C3BAA;" d="M56.46,1.8c1.03,0.23,2.06,0.46,3.08,0.69C70.03,4.91,77.65,14.12,78.1,24.9
			c0.53,12.59-8.18,23.14-20.68,25.09c-13.17,2.05-25.77-7.54-27.4-20.84C28.37,15.7,37.48,3.9,50.95,2.03
			c0.17-0.02,0.32-0.15,0.47-0.23C53.1,1.8,54.78,1.8,56.46,1.8z"/>
		<path style="fill:#1C3BAA;" d="M53.84,54.77c11.18-2.3,22.36-4.59,33.54-6.89c0.59-0.12,1.17-0.24,1.76-0.36
			c1.62-0.34,2.65,0.27,3.07,1.84c0.11,0.42,0.2,0.86,0.2,1.3c0.01,4,0.01,8,0,12c0,0.15-0.06,0.3-0.09,0.45
			c-11.19-1.18-19.37,7.45-19.2,17.09c0.16,9.42,8.23,17.67,19.29,16.5c0,1.27,0.13,2.55-0.03,3.79c-0.18,1.4-1.32,2.01-2.58,2.35
			c-3.35,0.89-6.71,1.77-10.06,2.66c-8.41,2.23-16.81,4.46-25.21,6.7c-0.17,0.04-0.31,0.17-0.47,0.25c-0.08,0-0.16,0-0.24,0
			c0-2.12,0.01-4.24,0.01-6.35C53.83,88.98,53.84,71.87,53.84,54.77z"/>
		<path style="fill:#294ED2;" d="M53.84,54.77c-0.01,17.11-0.01,34.21-0.02,51.32c0,2.12,0,4.24-0.01,6.35c-0.08,0-0.16,0-0.24,0
			c-1.15-0.39-2.28-0.84-3.44-1.15c-10.49-2.78-20.98-5.54-31.47-8.31c-2.64-0.7-3.13-1.36-3.11-4.12c0-0.71,0-1.41,0-2.13
			c11.72,1.15,19.61-8.02,19.28-17.37c-0.33-9.16-8.2-17.34-19.2-16.26c-0.03-0.38-0.08-0.76-0.08-1.14
			c-0.01-3.6-0.02-7.2,0.01-10.79c0.01-0.75,0.11-1.53,0.35-2.23c0.42-1.23,1.38-1.73,2.65-1.47c11.69,2.39,23.37,4.79,35.06,7.19
			C53.71,54.67,53.78,54.73,53.84,54.77z"/>
		<path style="fill:#294ED2;" d="M89.88,94.3c-8.4-0.21-14.44-6.71-14.21-15.29c0.2-7.46,6.99-13.69,14.69-13.48
			c8.06,0.23,14.3,6.82,14.07,14.86C104.2,88.16,97.57,94.5,89.88,94.3z"/>
		<path style="fill:#294ED2;" d="M32.33,79.96c-0.05,7.99-6.56,14.44-14.47,14.34c-8.04-0.1-14.4-6.56-14.3-14.5
			c0.1-8.03,6.53-14.35,14.52-14.26C26.02,65.62,32.37,72.05,32.33,79.96z"/>
	</g>
</g>
</svg>
